<?xml version="1.0" encoding="UTF-8" standalone="no"?><svg xmlns="http://www.w3.org/2000/svg" xmlns:xlink="http://www.w3.org/1999/xlink" fill="#f48b48" height="116.3" preserveAspectRatio="xMidYMid meet" version="1" viewBox="-1.4 5.7 130.4 116.3" width="130.4" zoomAndPan="magnify"><g id="change1_1"><path d="M44,63c1.9,0,3.6-0.9,4.7-2.2C48.9,62,49,63.4,49,65c0,1.1,0.9,2,2,2c0,0,0,0,0,0c1.1,0,2-0.9,2-2 c0.1-6.5-1.8-11.1-5.4-13.7C41.4,47,32.7,50,32.3,50.2c-1,0.4-1.6,1.5-1.2,2.6c0.4,1,1.5,1.6,2.6,1.2c0,0,2.8-0.9,5.9-0.9 c-0.9,1.1-1.5,2.5-1.5,4C38,60.3,40.7,63,44,63z M44,59c-1.1,0-2-0.9-2-2s0.9-2,2-2s2,0.9,2,2S45.1,59,44,59z" fill="inherit"/></g><g id="change1_2"><path d="M97.9,52.7c0.4-1-0.2-2.2-1.2-2.6c-0.4-0.1-9.1-3.2-15.2,1.2C77.8,54,75.9,58.6,76,65c0,1.1,0.9,2,2,2c0,0,0,0,0,0 c1.1,0,2-0.9,2-2c0-1.6,0.1-3,0.3-4.2c1.1,1.4,2.8,2.2,4.7,2.2c3.3,0,6-2.7,6-6c0-1.5-0.6-2.9-1.5-4c3.1,0,5.8,0.9,5.9,0.9 C96.4,54.3,97.5,53.8,97.9,52.7z M85,59c-1.1,0-2-0.9-2-2s0.9-2,2-2c1.1,0,2,0.9,2,2S86.1,59,85,59z" fill="inherit"/></g><g id="change1_3"><path d="M72.9,102c3.6,0,7.1-1.4,9.6-4.1c0.8-0.8,0.7-2.1-0.1-2.8c-0.8-0.8-2.1-0.7-2.8,0.1c-2.2,2.3-5.7,3.3-8.9,2.5 c-1.1-0.3-2.1-0.6-3.1-1.1c2.6-2.5,4.7-5.6,6-9.3c0.6-1.7-0.5-4-2.2-4.4c-5.9-1.6-11.4-0.6-14.2,0.1c-2,0.5-3,2.9-2.3,4.8 c1.4,3.5,3.4,6.5,5.9,8.9c-1,0.5-2.1,0.9-3.2,1.1c-3.3,0.8-6.8-0.2-9-2.6c-0.7-0.8-2-0.9-2.8-0.1c-0.8,0.7-0.9,2-0.1,2.8 c3.1,3.4,8.2,4.9,12.8,3.8c2-0.5,3.9-1.3,5.7-2.4c1.8,1.1,3.7,1.9,5.7,2.4C70.8,101.9,71.8,102,72.9,102z M64,94.3 c-2.3-1.9-4.1-4.6-5.4-7.6c2.4-0.5,6.5-1.1,10.9-0.1C68.2,89.7,66.3,92.3,64,94.3z" fill="inherit"/></g><g id="change1_4"><path d="M40,85.9c-0.1-1.1-1-1.9-2.1-1.9c-6.7,0.5-23.8,2.6-37,12.4c-0.9,0.7-1.1,1.9-0.4,2.8c0.6,0.9,1.9,1.1,2.8,0.4 c12.4-9.1,28.6-11.2,35-11.6C39.2,87.9,40.1,87,40,85.9z" fill="inherit"/></g><g id="change1_5"><path d="M42,91.6c-0.2-1.1-1.3-1.8-2.4-1.5c-0.9,0.2-22.1,5-35.1,20.7c-0.7,0.8-0.6,2.1,0.3,2.8c0.8,0.7,2.1,0.6,2.8-0.3 C19.7,98.7,40.2,94,40.4,93.9C41.5,93.7,42.2,92.6,42,91.6z" fill="inherit"/></g><g id="change1_6"><path d="M5.2,58.2c-0.6,3-1,6.1-1,9.2c0,6.9,1.6,13.6,4.6,19.7c1.2-0.6,2.5-1.1,3.7-1.6c-2.8-5.6-4.3-11.8-4.3-18.2 c0-2.1,0.2-4.3,0.5-6.4c0.3-1.5,1.5-5.5,3.6-7.5c0.8-0.7,0.9-2,0.1-2.8c-0.7-0.8-2-0.9-2.8-0.1c-0.4,0.4-0.8,0.8-1.1,1.2 c-2.9-12-5.8-28.3-3.9-41.7c0,0,0,0,0,0c3.2,1.9,10.7,6.4,26.3,15.1c-1.7,1.2-3.2,2.3-4.3,3.3c-0.8,0.7-0.9,2-0.2,2.8 c0.7,0.8,2,0.9,2.8,0.2c2.4-2.1,6.7-5.1,10.8-7.2c7.5-3,15.7-4.6,24-4.6c8.4,0,16.6,1.6,24.1,4.7c4.7,2.3,9.3,5.1,11.4,7 c0.8,0.7,2.1,0.6,2.8-0.2c0.7-0.8,0.6-2.1-0.2-2.8c-1.2-1-2.9-2.2-4.8-3.4c11.6-6.6,21-12.1,25.8-15c1.9,13.3-0.9,29.6-3.8,41.4 c-0.3-0.3-0.5-0.6-0.8-0.8c-0.8-0.8-2.1-0.7-2.8,0.1c-0.7,0.8-0.7,2.1,0.1,2.8c2,1.9,3.2,5.9,3.5,7.5c0.3,2.1,0.5,4.3,0.5,6.4 c0,6.5-1.5,12.7-4.3,18.3c1.2,0.5,2.5,1,3.7,1.6c3-6.2,4.6-12.9,4.6-19.9c0-3.3-0.4-6.6-1.1-9.9c-0.3-1.2-0.3-2.4,0-3.6 c3.1-12.3,6.3-30,4.2-44.5c-0.2-1.3-1-2.4-2.2-3c-1.2-0.6-2.7-0.5-3.8,0.1c-5,2.9-15.2,8.8-27.5,15.9c-9-4.4-19.2-6.7-29.6-6.7 c-10.5,0-20.8,2.4-29.8,6.8C17.8,13.3,10,8.6,6.7,6.7C5.5,5.9,4.1,5.9,2.9,6.5c-1.2,0.6-2,1.7-2.2,3c-2.1,14.8,1.2,32.7,4.4,45.2 C5.4,55.8,5.4,57,5.2,58.2z" fill="inherit"/></g><g id="change1_7"><path d="M77.1,113.8c-1.9,0.4-6,2.4-6.5,2.7c-3.5,2-8.5,2-12.1,0c-0.6-0.3-4.6-2.2-6.5-2.6c-9.4-1.8-17.8-5.6-24.7-10.8 c-1.2,0.6-2.5,1.3-3.8,2.1c7.6,6.1,17.2,10.6,27.8,12.7c1.1,0.2,4.6,1.7,5.3,2.1c2.4,1.3,5.2,2,8,2c2.8,0,5.6-0.7,8-2 c0.8-0.4,4.2-2,5.4-2.3c10.4-2.1,19.6-6.4,27-12.3c-1.3-0.8-2.6-1.5-3.8-2.1C94.4,108.3,86.2,112,77.1,113.8z" fill="inherit"/></g><g id="change1_8"><path d="M127.2,96.4c-13.3-9.8-30.3-11.9-37-12.4c-1.1-0.1-2.1,0.8-2.1,1.9c-0.1,1.1,0.8,2.1,1.9,2.1c6.4,0.4,22.5,2.5,35,11.6 c0.9,0.6,2.1,0.5,2.8-0.4C128.3,98.3,128.1,97,127.2,96.4z" fill="inherit"/></g><g id="change1_9"><path d="M88.4,90c-1.1-0.2-2.1,0.4-2.4,1.5c-0.2,1.1,0.4,2.1,1.5,2.4c0.2,0,20.7,4.7,32.9,19.3c0.7,0.8,2,1,2.8,0.3 c0.8-0.7,1-2,0.3-2.8C110.5,95,89.3,90.2,88.4,90z" fill="inherit"/></g><g id="change1_10"><path d="M62,103c-1.1,0-2,0.9-2,2c0,1.1,0.9,2,2,2h4c1.1,0,2-0.9,2-2c0-1.1-0.9-2-2-2H62z" fill="inherit"/></g></svg>